<svg xmlns="http://www.w3.org/2000/svg" viewBox="0 0 134.74 134.74"><defs><style>.cls-1{isolation:isolate;}.cls-2{fill:#ed1100;mix-blend-mode:multiply;}.cls-3{fill:none;stroke:#fff;stroke-linecap:round;stroke-linejoin:round;stroke-width:2.5px;}</style></defs><g class="cls-1"><g id="Layer_2" data-name="Layer 2"><g id="Layer_1-2" data-name="Layer 1"><circle class="cls-2" cx="67.37" cy="67.37" r="67.37"/><polyline class="cls-3" points="32.24 86.75 32.24 44.58 55.87 44.58"/><line class="cls-3" x1="93.38" y1="65.67" x2="93.38" y2="86.75"/><path class="cls-3" d="M94.61,96.38H31.71a4,4,0,0,1-4-4v-5H57.43l3.64,2.57h5.66l3.58-2.57h28.3v5A4,4,0,0,1,94.61,96.38Z"/><circle class="cls-3" cx="48.95" cy="66.4" r="5.66"/><path class="cls-3" d="M56.88,86.6V81.45a5.33,5.33,0,0,0-5.31-5.31H46.34A5.33,5.33,0,0,0,41,81.45v5"/><path class="cls-3" d="M98.61,49.82C98.61,57.63,89.93,64,79.22,64a26.29,26.29,0,0,1-5.91-.67c-2.22,1.16-9,4.31-11.28,3.92,1.66-3.46,2.37-6.08,2.08-8.54a12,12,0,0,1-4.27-8.86c0-7.82,8.68-14.16,19.38-14.16S98.61,42,98.61,49.82Z"/></g></g></g></svg>