<svg xmlns="http://www.w3.org/2000/svg" viewBox="0 0 134.74 134.74"><defs><style>.cls-1{isolation:isolate;}.cls-2{fill:#ed1100;mix-blend-mode:multiply;}.cls-3{fill:none;stroke:#fff;stroke-linecap:round;stroke-linejoin:round;stroke-width:2.47px;}.cls-4{fill:#fff;}</style></defs><g class="cls-1"><g id="Layer_2" data-name="Layer 2"><g id="Layer_1-2" data-name="Layer 1"><circle class="cls-2" cx="67.37" cy="67.37" r="67.37"/><polyline class="cls-3" points="48.17 45.7 48.17 37.26 83.05 37.26 95.26 49.86 95.26 98.39 48.17 98.39 48.17 68.3"/><path class="cls-4" d="M96.55,50.32a.45.45,0,0,1-.45.44H82.34a.44.44,0,0,1-.44-.44V36.56a.45.45,0,0,1,.44-.45"/><rect class="cls-4" x="45.98" y="48.59" width="4.38" height="16.79" rx="0.74"/><rect class="cls-4" x="45.98" y="48.59" width="4.38" height="16.79" rx="0.74" transform="translate(-8.82 105.16) rotate(-90)"/><line class="cls-3" x1="56.27" y1="67.83" x2="89.68" y2="67.83"/><line class="cls-3" x1="56.27" y1="76.18" x2="89.68" y2="76.18"/><line class="cls-3" x1="56.27" y1="84.54" x2="79.75" y2="84.54"/></g></g></g></svg>