<svg xmlns="http://www.w3.org/2000/svg" viewBox="0 0 134.74 134.74"><defs><style>.cls-1{isolation:isolate;}.cls-2{fill:#ed1100;mix-blend-mode:multiply;}.cls-3,.cls-5{fill:none;stroke:#fff;stroke-linecap:round;stroke-width:2.08px;}.cls-3{stroke-miterlimit:10;}.cls-4{fill:#fff;}.cls-5{stroke-linejoin:round;}</style></defs><g class="cls-1"><g id="Layer_2" data-name="Layer 2"><g id="Layer_1-2" data-name="Layer 1"><circle class="cls-2" cx="67.37" cy="67.37" r="67.37"/><path class="cls-3" d="M66,36.33V26.57A2.53,2.53,0,0,1,68.55,24h35.36a2.53,2.53,0,0,1,2.53,2.53V48.73a2.53,2.53,0,0,1-2.53,2.53H87.35l-6.74,6.68"/><circle class="cls-4" cx="81.74" cy="37.73" r="1.12"/><circle class="cls-4" cx="86.23" cy="37.73" r="1.12"/><circle class="cls-4" cx="90.72" cy="37.73" r="1.12"/><path class="cls-3" d="M76.21,53.33c-.51,7.29-3.46,12.6-10.19,12.6s-9.72-5.39-10.2-12.6S57,40.05,66,40.05,76.72,46,76.21,53.33Z"/><polyline class="cls-5" points="55.78 49.83 60.4 47.88 71.63 52.39 76.15 50.14"/><line class="cls-3" x1="60.4" y1="64.2" x2="60.4" y2="68.92"/><line class="cls-3" x1="71.62" y1="64.2" x2="71.62" y2="68.92"/><line class="cls-3" x1="50.31" y1="88.84" x2="50.31" y2="95.01"/><line class="cls-3" x1="81.74" y1="88.84" x2="81.74" y2="95.01"/><path class="cls-5" d="M59.28,68.92,66,70.4l6.73-1.23S75,72.49,75,72.54,71,77,70.83,77,66,74.65,66,74.65L61.53,77,57,72.54Z"/><circle class="cls-4" cx="66.02" cy="80.4" r="1.12"/><circle class="cls-4" cx="66.02" cy="84.89" r="1.12"/><path class="cls-5" d="M41.27,95c0-18.33-.39-14,15.9-22.46"/><path class="cls-5" d="M90.82,95c0-18.33.39-14-15.9-22.46"/></g></g></g></svg>